<svg width="80" height="80" viewBox="0 0 80 80" fill="none" xmlns="http://www.w3.org/2000/svg">
<path fill-rule="evenodd" clip-rule="evenodd" d="M80 40C80 62.0914 62.0914 80 40 80C17.9086 80 0 62.0914 0 40C0 17.9086 17.9086 0 40 0C62.0914 0 80 17.9086 80 40ZM28.3333 37.3333C27.0447 37.3333 26 38.378 26 39.6667V51.3333C26 52.622 27.0447 53.6667 28.3333 53.6667H51.6667C52.9553 53.6667 54 52.622 54 51.3333V39.6667C54 38.378 52.9553 37.3333 51.6667 37.3333L48.3333 37.3333H31.6667L28.3333 37.3333ZM30.6667 35.3333H28.3333C25.9401 35.3333 24 37.2734 24 39.6667V51.3333C24 53.7266 25.9401 55.6667 28.3333 55.6667H51.6667C54.0599 55.6667 56 53.7266 56 51.3333V39.6667C56 37.2734 54.0599 35.3333 51.6667 35.3333H49.3333V29.6667C49.3333 27.1913 48.35 24.8173 46.5997 23.067C44.8493 21.3167 42.4754 20.3333 40 20.3333C37.5246 20.3333 35.1507 21.3167 33.4003 23.067C31.65 24.8173 30.6667 27.1913 30.6667 29.6667V35.3333ZM32.6667 35.3333H47.3333V29.6667C47.3333 27.7217 46.5607 25.8565 45.1854 24.4812C43.8102 23.1059 41.9449 22.3333 40 22.3333C38.0551 22.3333 36.1898 23.1059 34.8146 24.4812C33.4393 25.8565 32.6667 27.7217 32.6667 29.6667V35.3333Z" fill="#EA5122"/>
</svg>
